<svg xmlns="http://www.w3.org/2000/svg" width="865.76" height="682.89" viewBox="0 0 865.76 682.89"><path d="M619.34,107.62A342.49,342.49,0,0,0,402.25,30.45c-189.93,0-343.89,154-343.89,343.89a345.89,345.89,0,0,0,6.79,68.36Z" fill="#3db2ff"/><path d="M641.62,95,80,452A343.83,343.83,0,0,0,162.3,588L751,365.1q.46-9,.47-18.15A343,343,0,0,0,641.62,95Z" fill="#3db2ff"/><path d="M237.22,563.6a342.63,342.63,0,0,0,230.67,88.84c171.2,0,313.18-125.1,339.51-288.88C679.87,408,352.88,522.2,237.22,563.6Z" fill="#3db2ff"/><g opacity="0.8" style="isolation:isolate"><path d="M619.34,107.62A342.49,342.49,0,0,0,402.25,30.45c-189.93,0-343.89,154-343.89,343.89a345.89,345.89,0,0,0,6.79,68.36Z" fill="#fff"/><path d="M641.62,95,80,452A343.83,343.83,0,0,0,162.3,588L751,365.1q.46-9,.47-18.15A343,343,0,0,0,641.62,95Z" fill="#fff"/><path d="M237.22,563.6a342.63,342.63,0,0,0,230.67,88.84c171.2,0,313.18-125.1,339.51-288.88C679.87,408,352.88,522.2,237.22,563.6Z" fill="#fff"/></g><rect x="152.46" y="403.59" width="14.99" height="179.83" fill="#747bff"/><rect x="160.49" y="403.59" width="6.96" height="179.83" fill="#9da2fe"/><rect x="455.38" y="403.59" width="14.99" height="179.83" fill="#747bff"/><rect x="463.41" y="403.59" width="6.96" height="179.83" fill="#9da2fe"/><path d="M713.89,415.9c-.1.42-.27,1-.45,1.48a4,4,0,0,1-2.37,2.47,9.86,9.86,0,0,1-6,.58c-5.91-1.57-6.22-10.42-6.22-10.42-1.07-17.66,6-22.44,6-22.44l2.39,2.79,6,7S717.1,402.52,713.89,415.9Z" fill="#3db2ff"/><path d="M713.89,415.9c-.1.42-.27,1-.45,1.48a4,4,0,0,1-2.37,2.47,9.86,9.86,0,0,1-6,.58l-.06-.14c-6.87-12.62,1.41-28.42,2.23-29.93l6,7S717.1,402.52,713.89,415.9Z" fill="#fff" opacity="0.2"/><path d="M636.28,218.94a46,46,0,0,1-2.61,6.11c-14.31,28.42-48.76,40-77.63,26.62-9.71-4.5-20.12-11.83-26.26-23.63l.15.07c.28.13,1,.44,2,.88C543.17,233.78,596.72,253.73,636.28,218.94Z" fill="#1e3163"/><path d="M674,319.68a242.19,242.19,0,0,1-13.58,52.86C632.54,438.91,598.28,433,598.28,433c-15,0-28-6.29-39-15.42-29-24.12-44-68.07-44-68.07-22.7-49.84-14.71-86.81-9.49-101.81a40.93,40.93,0,0,1,8.9-14.79c9.7-10.23,15-4.89,15-4.89,6.14,11.8,16.55,19.13,26.26,23.63,28.87,13.38,63.32,1.8,77.63-26.62a46,46,0,0,0,2.61-6.11h0c12.85-4.28,22.75,11.64,29.44,28.63A142.41,142.41,0,0,1,674,319.68Z" fill="#3db2ff"/><path d="M514.49,288.36c-.34.57-.69,1.15-1.06,1.73a19.84,19.84,0,0,1-24,7.73c-.52-.2-1-.43-1.55-.68-6.51-3.2-13.7-9-15.37-19.33,0,0-4.28-20.34,12.85-34.25,0,0,6.14-5.59,18.83-5a14,14,0,0,1,12,7.88c1.77,3.72,3.35,9.28,3.87,17.58A43.39,43.39,0,0,1,514.49,288.36Z" fill="#3db2ff"/><path d="M500.88,443.6V472a1.05,1.05,0,0,1-.27.68c-.85,1.08-3.68,1.87-7,1.87h-366l-.38,0-.44,0h-.09l-.42,0c-.25,0-.49-.05-.73-.09l-.27,0-.34,0-.42-.08-.29-.07-.29-.07a8.62,8.62,0,0,1-1.41-.47.69.69,0,0,1-.15-.07l-.06,0-.11-.06h0l-.16-.09a2.74,2.74,0,0,1-.83-.66,1.09,1.09,0,0,1-.26-.68V443.6c0-1.41,3.27-2.55,7.3-2.55h365.4a17.15,17.15,0,0,1,4.52.55,7.5,7.5,0,0,1,1.22.43C500.3,442.46,500.88,443,500.88,443.6Z" fill="#ffc931"/><path d="M514.49,288.36c-.34.57-.69,1.15-1.06,1.73a19.84,19.84,0,0,1-24,7.73c-7.05-11.05,4.7-18,4.7-18,15.36-8.45,14.54-35.75,14.28-40.39a13.87,13.87,0,0,1,7.76,7c1.77,3.72,3.35,9.28,3.87,17.58A43.39,43.39,0,0,1,514.49,288.36Z" opacity="0.1"/><path d="M515.33,240.35a1.16,1.16,0,0,1-.66-.22,1.09,1.09,0,0,1-.19-1.51c.22-.29,5.56-7.17,11.57-10.45a1.07,1.07,0,1,1,1,1.88c-5.62,3.06-10.85,9.81-10.9,9.88A1.1,1.1,0,0,1,515.33,240.35Z" fill="#fff"/><path d="M475.72,276.74a1.06,1.06,0,0,1-1.05-.88c0-.22-3.62-21.78,19.29-33.78a1.07,1.07,0,1,1,1,1.89c-21.48,11.26-18.32,30.69-18.17,31.51a1.07,1.07,0,0,1-.87,1.24A.62.62,0,0,1,475.72,276.74Z" fill="#fff"/><path d="M531.81,369.39l-3-.11c.07-1.93,1.88-47.29,22.13-50.67.47-.07,47.15-7.76,80.06-5.28a18.17,18.17,0,0,1,11.65,5.36c6.79,6.88,15.17,21,16.54,49l-3,.15c-1.39-28.47-10.41-41.67-15.67-47a15.3,15.3,0,0,0-9.75-4.47c-32.54-2.46-78.87,5.18-79.34,5.25C533.59,324.55,531.83,368.94,531.81,369.39Z" fill="#1e3163"/><path d="M674,319.68a242.19,242.19,0,0,1-13.58,52.86C632.54,438.91,598.28,433,598.28,433c-15,0-28-6.29-39-15.42a2.85,2.85,0,0,1,.12-.3c-3-7.7,1.93-10,1.93-10,91-43.89,57.81-134.87,57.81-134.87-9.1-17.66-.54-25.69-.54-25.69,17.66-15.52,17.66-27.83,17.66-27.83,12.85-4.28,22.75,11.64,29.44,28.63A142.41,142.41,0,0,1,674,319.68Z" fill="#fff" opacity="0.2"/><path d="M540,391.28a1.07,1.07,0,0,1-.89-.48c-28.74-42.57-31.2-86.8-31.22-87.25a1.07,1.07,0,1,1,2.13-.1c0,.44,2.48,44.1,30.86,86.16a1.07,1.07,0,0,1-.88,1.67Z" fill="#fff"/><ellipse cx="599.89" cy="432.49" rx="11.24" ry="2.14" fill="#1e3163"/><ellipse cx="645.38" cy="400.37" rx="11.24" ry="2.14" transform="translate(-47.24 711.96) rotate(-56.04)" fill="#1e3163"/><ellipse cx="550.12" cy="408.4" rx="2.14" ry="11.24" transform="translate(-131.07 481.94) rotate(-42.75)" fill="#1e3163"/><polygon points="588.65 432.49 602.03 486.54 611.13 432.49 588.65 432.49" fill="#3db2ff" opacity="0.21"/><polygon points="639.1 409.7 651.66 391.05 680.71 427.67 639.1 409.7" fill="#3db2ff" opacity="0.21"/><polygon points="542.49 400.15 557.75 416.65 522.82 438.91 542.49 400.15" fill="#3db2ff" opacity="0.21"/><path d="M160,441.05,140.68,474.5H127.56l-.38,0-.44,0h-.09l-.42,0c-.25,0-.49-.05-.73-.09l-.27,0-.34,0-.42-.08-.29-.07-.29-.07a8.62,8.62,0,0,1-1.41-.47.69.69,0,0,1-.15-.07l-.06,0-.11-.06,18.67-32.34Z" fill="#ffe18e"/><polygon points="198.1 441.05 178.78 474.5 159.63 474.5 178.94 441.05 198.1 441.05" fill="#ffe18e"/><polygon points="235.11 441.05 215.8 474.5 196.64 474.5 215.95 441.05 235.11 441.05" fill="#ffe18e"/><polygon points="273.11 441.05 253.8 474.5 234.64 474.5 253.95 441.05 273.11 441.05" fill="#ffe18e"/><polygon points="310.74 441.05 291.43 474.5 272.27 474.5 291.58 441.05 310.74 441.05" fill="#ffe18e"/><polygon points="348.74 441.05 329.43 474.5 310.27 474.5 329.58 441.05 348.74 441.05" fill="#ffe18e"/><polygon points="386.26 441.05 366.95 474.5 347.79 474.5 367.1 441.05 386.26 441.05" fill="#ffe18e"/><polygon points="424.26 441.05 404.95 474.5 385.79 474.5 405.1 441.05 424.26 441.05" fill="#ffe18e"/><polygon points="461.89 441.05 442.58 474.5 423.42 474.5 442.73 441.05 461.89 441.05" fill="#ffe18e"/><path d="M499.32,442,480.58,474.5H461.42l19.31-33.45h12.85a17.15,17.15,0,0,1,4.52.55A7.5,7.5,0,0,1,499.32,442Z" fill="#ffe18e"/><circle cx="160.75" cy="457.91" r="3.48" fill="#1e3163"/><circle cx="462.61" cy="457.91" r="3.48" fill="#1e3163"/><path d="M500.88,469.42V472a1.05,1.05,0,0,1-.27.68c-.85,1.08-3.68,1.87-7,1.87h-366l-.38,0-.44,0h-.09l-.42,0c-.25,0-.49-.05-.73-.09l-.27,0-.34,0-.42-.08-.29-.07-.29-.07a8.62,8.62,0,0,1-1.41-.47.69.69,0,0,1-.15-.07l-.06,0-.14-.07-.16-.09a2.74,2.74,0,0,1-.83-.66,1.09,1.09,0,0,1-.26-.68v-2.53Z" opacity="0.1"/><rect x="230.6" y="226.97" width="160.56" height="56.2" rx="4.78" fill="#3db2ff"/><path d="M391.16,277.28v1.1a4.78,4.78,0,0,1-4.79,4.78h-151a4.78,4.78,0,0,1-4.78-4.78v-1.1Z" opacity="0.1"/><path d="M241.3,262.56a.27.27,0,0,1-.27-.27V234.71a3.75,3.75,0,0,1,3.74-3.73H377.24a.27.27,0,1,1,0,.54H244.77a3.19,3.19,0,0,0-3.2,3.19v27.58A.27.27,0,0,1,241.3,262.56Z" fill="#fff"/><circle cx="581.42" cy="197" r="53.52" fill="#3db2ff"/><path d="M566.35,164.17a5.52,5.52,0,0,1-4.1-1.81L553,152.15l2.22-2,9.23,10.21a2.5,2.5,0,0,0,2.58.72A48.05,48.05,0,0,1,594,161a2.52,2.52,0,0,0,2.69-.88l8.55-11.23,2.39,1.81-8.55,11.23a5.54,5.54,0,0,1-5.92,1.95,45.11,45.11,0,0,0-25.23.06A5.49,5.49,0,0,1,566.35,164.17Z" fill="#1e3163"/><path d="M556,179.33h51.92s12.84,0,15,12.31c0,0,9.35,36.52-26.06,48.29a50.41,50.41,0,0,1-33-.15c-10.74-3.87-22.51-12.37-23.37-31V192.18S541.55,179.87,556,179.33Z" fill="#1e3163"/><path d="M560.19,202.59a11.46,11.46,0,0,1-2.72-.3.49.49,0,0,1-.34-.61.49.49,0,0,1,.61-.35c.38.11,9.23,2.41,12.78-7.71a.5.5,0,0,1,.63-.31.51.51,0,0,1,.31.64C568.86,201.37,563.47,202.59,560.19,202.59Z" fill="#3db2ff"/><path d="M603.68,201.88a11.53,11.53,0,0,1-11.85-9.5.5.5,0,0,1,.42-.57.51.51,0,0,1,.57.42c.06.39,1.5,9.41,12.19,8.6a.49.49,0,0,1,.54.46.5.5,0,0,1-.46.54C604.6,201.87,604.13,201.88,603.68,201.88Z" fill="#3db2ff"/><path d="M531.92,207.16a1.05,1.05,0,0,1-1.06-.93,61.6,61.6,0,0,1,3.94-27.49c5.11-13,17.46-29.43,47.28-33.65a1.08,1.08,0,0,1,1.21.91,1.07,1.07,0,0,1-.91,1.21c-23.12,3.27-38.46,14.14-45.58,32.31A60.41,60.41,0,0,0,533,206a1.08,1.08,0,0,1-.93,1.2Z" fill="#fff"/><path d="M566.71,226.4a.51.51,0,0,1-.31-.11.5.5,0,0,1-.09-.7l.82-1a17.3,17.3,0,0,1,13.67-6.65h2.7a17.33,17.33,0,0,1,13.26,6.16l.84,1a.5.5,0,0,1-.77.64l-.83-1a16.36,16.36,0,0,0-12.5-5.8h-2.7a16.3,16.3,0,0,0-12.88,6.26l-.82,1.05A.52.52,0,0,1,566.71,226.4Z" fill="#3db2ff"/><path d="M700.87,254.3a34.58,34.58,0,0,1-4.64,16.55c-16.59,28.37-35.33,5.36-35.33,5.36-11.3-15.83-9.07-32.72-6.76-41.32a11.23,11.23,0,0,1,1.32-3,11.54,11.54,0,0,1,6.82-5.09c15.4-4.16,27.52,5,27.52,5C698.5,239.11,700.93,247.31,700.87,254.3Z" fill="#3db2ff"/><path d="M700.87,254.3a34.58,34.58,0,0,1-4.64,16.55c-16.59,28.37-35.33,5.36-35.33,5.36-11.3-15.83-9.07-32.72-6.76-41.32a11.23,11.23,0,0,1,1.32-3l0,.08s13.42,35.19,31.62,26.62C687.13,258.54,694.89,251.43,700.87,254.3Z" opacity="0.1"/><path d="M690.34,238.21a1.1,1.1,0,0,1-.85-.42c-7.06-9.08-23.54-8.16-23.7-8.15a1.07,1.07,0,1,1-.14-2.14c.73,0,17.78-1,25.53,9A1.07,1.07,0,0,1,691,238,1.1,1.1,0,0,1,690.34,238.21Z" fill="#fff"/><path d="M703.18,296.54l-8.21,3.4-7.31,3-10.5-26.5a8.21,8.21,0,0,1,0-6.29,5.94,5.94,0,0,1,4.58-3.61s7.39-2.95,11.29,4.38c.17.3.33.63.48,1Z" fill="#1e3163"/><path d="M695,299.94l-7.31,3-10.5-26.5a8.21,8.21,0,0,1,0-6.29,5.94,5.94,0,0,1,4.58-3.61s7.39-2.95,11.29,4.38c-3.13,1.23-8.37,4.6-4.87,12.75Z" opacity="0.1"/><path d="M698.9,294.4a1.08,1.08,0,0,1-1-.68L691,275.52a1.07,1.07,0,0,1,2-.77l7,18.2a1.06,1.06,0,0,1-.62,1.38A1,1,0,0,1,698.9,294.4Z" fill="#fff"/><path d="M735.41,349.88c.06,16.64-6.54,25.87-6.54,25.87l-23,7.5c-23.55-11.24-26.22-44.42-26.22-44.42-1.3-16.37,2.06-26.81,5.87-33.21a30.77,30.77,0,0,1,3.79-5.13,15.44,15.44,0,0,1,11.7-5c15.82.37,25.73,19.78,25.73,19.78C733.27,328.92,735.38,340.56,735.41,349.88Z" fill="#3db2ff"/><path d="M735.41,349.88c.06,16.64-6.54,25.87-6.54,25.87l-23,7.5c-23.55-11.24-26.22-44.42-26.22-44.42-1.3-16.37,2.06-26.81,5.87-33.21,3.59,0,8.36,1.51,9.65,8.59,0,0,4,22.58,20.41,31.27a24.78,24.78,0,0,0,12.17,2.73C730.15,348.16,733.4,348.41,735.41,349.88Z" opacity="0.1"/><circle cx="719.51" cy="386.19" r="14.72" fill="#1e3163"/><path d="M743.32,413.22c-.29,9.71-5.12,14.09-9.4,16a17.69,17.69,0,0,1-10.16,1.25c-5.47-.86-8.31-2.94-9.68-5.26-2.55-4.26-.19-9.36-.19-9.36,2.41-9.37.48-16.53-.62-18.54a10.84,10.84,0,0,1-1.06-2.54,8.92,8.92,0,0,1,1.34-7.78,11.83,11.83,0,0,1,2.55-2.59A16.52,16.52,0,0,1,731,382C748.36,387.22,743.32,413.22,743.32,413.22Z" fill="#3db2ff"/><path d="M719.24,418a15.42,15.42,0,0,1-5.16,7.22c-2.55-4.26-.19-9.36-.19-9.36,2.41-9.37.48-16.53-.62-18.54a10.84,10.84,0,0,1-1.06-2.54,8.92,8.92,0,0,1,1.34-7.78l.14.08a18.93,18.93,0,0,0,3.1,10.49,17.81,17.81,0,0,1,2,3.9A26.8,26.8,0,0,1,719.24,418Z" opacity="0.1"/><ellipse cx="488.57" cy="286.64" rx="8.56" ry="8.83" fill="#1e3163"/><path d="M489.64,284.77s-14.45-9.63-30.51,7c0,0-8,9.1-11.77,16v8.35l46.22.22s3.78.23,5.27,2.25C498.85,318.6,502.48,292.8,489.64,284.77Z" fill="#3db2ff"/><path d="M450.57,312.07a1.1,1.1,0,0,1-.52-.14,1.06,1.06,0,0,1-.42-1.45c.62-1.14,15.54-27.91,33.71-25.7a1.07,1.07,0,1,1-.25,2.12c-16.73-2-31.44,24.34-31.58,24.61A1.1,1.1,0,0,1,450.57,312.07Z" fill="#fff"/><circle cx="435.58" cy="310.99" r="12.84" fill="#1e3163"/><path d="M500.88,323.65v81.2a7,7,0,0,1-.27,1.95,7.3,7.3,0,0,1-7,5.35H128.18l-.44,0h-.18l-.38,0a3.11,3.11,0,0,1-.44-.08h-.09l-.42-.11a6.23,6.23,0,0,1-.73-.24l-.27-.11-.34-.17c-.15-.07-.28-.15-.42-.23a1.75,1.75,0,0,1-.29-.18l-.29-.2a6.93,6.93,0,0,1-1.41-1.35l-.15-.19-.06-.07-.14-.21c0-.08-.1-.16-.16-.24a7.19,7.19,0,0,1-1.09-3.84v-81.2a7.3,7.3,0,0,1,7.3-7.3h365.4a7.32,7.32,0,0,1,7.3,7.3Z" fill="#ffc931"/><polygon points="160.19 316.35 120.88 384.43 120.88 351.25 141.03 316.35 160.19 316.35" fill="#ffe18e"/><path d="M198.35,316.35,146.13,406.8,143,412.15H128.18l-.44,0h-.18l-.38,0a3.11,3.11,0,0,1-.44-.08h-.09l-.42-.11a6.23,6.23,0,0,1-.73-.24l-.27-.11-.34-.17c-.15-.07-.28-.15-.42-.23L127,406.8l52.21-90.45Z" fill="#ffe18e"/><polygon points="235.59 316.35 183.37 406.8 180.28 412.15 161.12 412.15 164.21 406.8 216.43 316.35 235.59 316.35" fill="#ffe18e"/><polygon points="273.3 316.35 221.09 406.8 217.99 412.15 198.83 412.15 201.93 406.8 254.14 316.35 273.3 316.35" fill="#ffe18e"/><polygon points="310.69 316.35 258.46 406.8 255.38 412.15 236.22 412.15 239.31 406.8 291.52 316.35 310.69 316.35" fill="#ffe18e"/><polygon points="347.53 316.35 295.31 406.8 292.22 412.15 273.06 412.15 276.15 406.8 328.37 316.35 347.53 316.35" fill="#ffe18e"/><polygon points="385.61 316.35 333.39 406.8 330.31 412.15 311.15 412.15 314.23 406.8 366.45 316.35 385.61 316.35" fill="#ffe18e"/><polygon points="423.84 316.35 371.62 406.8 368.53 412.15 349.37 412.15 352.46 406.8 404.68 316.35 423.84 316.35" fill="#ffe18e"/><polygon points="461.69 316.35 409.48 406.8 406.39 412.15 387.23 412.15 390.32 406.8 442.53 316.35 461.69 316.35" fill="#ffe18e"/><path d="M498.1,317.93,446.8,406.8l-3.09,5.35H424.55l3.09-5.35,52.22-90.45h13.72A7.24,7.24,0,0,1,498.1,317.93Z" fill="#ffe18e"/><polygon points="500.88 345.62 500.88 378.81 484.72 406.8 481.63 412.15 462.47 412.15 465.56 406.8 500.88 345.62" fill="#ffe18e"/><circle cx="160.75" cy="334.81" r="3.48" fill="#1e3163"/><circle cx="160.75" cy="395.29" r="3.48" fill="#1e3163"/><circle cx="462.07" cy="394.75" r="3.48" fill="#1e3163"/><circle cx="461.54" cy="334.81" r="3.48" fill="#1e3163"/><path d="M336.76,396.16l-46.29-.68a11.54,11.54,0,0,1-9.82-17.31l22.55-39.05a11.53,11.53,0,0,1,19.89-.15l23.74,39.75A11.52,11.52,0,0,1,336.76,396.16Z" fill="#fff"/><path d="M336.94,397.67h-.2l-46.3-.69a13,13,0,0,1-11.09-19.56l22.55-39.05a13,13,0,0,1,22.48-.17L348.12,378a13,13,0,0,1-11.18,19.72Zm-.16-3a10,10,0,0,0,8.77-15.19L321.8,339.74a10,10,0,0,0-17.3.13L282,378.92A10,10,0,0,0,290.49,394l46.29.69Z" fill="#3db2ff"/><path d="M433.52,327.55a18.69,18.69,0,0,0,2.06,9.67c1.87,2.94.54,5.62-1.27,7.56a11,11,0,0,1-1.22,1.14,13.87,13.87,0,0,1-6.34,2.82,26,26,0,0,1-3.91.42,15.93,15.93,0,0,1-16-13c-3.76-19.57,5.17-28.95,5.17-28.95,10.17-14.45,23-4.82,23-4.82a18.87,18.87,0,0,1,2.65,2.21h0c4.84,4.94,2.46,9.62.08,12.38A17,17,0,0,0,433.52,327.55Z" fill="#3db2ff"/><path d="M433.52,327.55a18.69,18.69,0,0,0,2.06,9.67c1.87,2.94.54,5.62-1.27,7.56a11,11,0,0,1-1.22,1.14l-.16,0c-4.78-4.7-4.84-12.94-4.84-12.94,0-8.26,4.78-15.25,7-18a13,13,0,0,0,2.72-9.81,4.8,4.8,0,0,0-.07-.48c4.84,4.94,2.46,9.62.08,12.38A17,17,0,0,0,433.52,327.55Z" opacity="0.1"/><path d="M500.61,406.8a7.3,7.3,0,0,1-7,5.35H128.18l-.44,0h-.18l-.38,0a3.11,3.11,0,0,1-.44-.08h-.09l-.42-.11a6.23,6.23,0,0,1-.73-.24l-.27-.11-.34-.17c-.15-.07-.28-.15-.42-.23a1.75,1.75,0,0,1-.29-.18l-.29-.2a6.93,6.93,0,0,1-1.41-1.35l-.15-.19-.06-.07-.14-.21c0-.08-.1-.16-.16-.24a7.44,7.44,0,0,1-.83-1.89Z" opacity="0.1"/><path d="M310.27,383.88a4.9,4.9,0,0,1,0-7,5.16,5.16,0,0,1,3.74-1.41,5,5,0,0,1,3.65,1.41,5,5,0,0,1,0,7,5,5,0,0,1-3.65,1.41A5.16,5.16,0,0,1,310.27,383.88Zm7.9-37-.69,20.87a3.66,3.66,0,0,1-3.65,3.54h0a3.66,3.66,0,0,1-3.66-3.53l-.73-20.87a4.37,4.37,0,0,1,4.36-4.53h0A4.38,4.38,0,0,1,318.17,346.87Z" fill="#3db2ff"/><path d="M287.09,263.55,283,256.7h-3.53v6.85h-1V247.48h4.42a5.7,5.7,0,0,1,4,1.26,4.38,4.38,0,0,1,1.34,3.34,4.51,4.51,0,0,1-1,3,4.67,4.67,0,0,1-3,1.48l4.21,6.94Zm-7.65-7.72h3.43a4.39,4.39,0,0,0,3.19-1,3.62,3.62,0,0,0,1.05-2.72q0-3.69-4.28-3.69h-3.39Z" fill="#fff"/><path d="M302.4,257.73H291.67a5.66,5.66,0,0,0,.73,2.82,4.46,4.46,0,0,0,1.81,1.72,5.32,5.32,0,0,0,2.45.57,5,5,0,0,0,3.07-.91,3.89,3.89,0,0,0,1.55-2.46h1.08a5,5,0,0,1-1.88,3.08,6,6,0,0,1-3.82,1.18,6.23,6.23,0,0,1-3.12-.78,5.5,5.5,0,0,1-2.15-2.23,7.82,7.82,0,0,1,0-6.79,5.37,5.37,0,0,1,2.14-2.21,6.35,6.35,0,0,1,3.14-.76,6.06,6.06,0,0,1,3.1.76,5.09,5.09,0,0,1,2,2,5.66,5.66,0,0,1,.69,2.74A11.87,11.87,0,0,1,302.4,257.73Zm-1.56-3.64a4.16,4.16,0,0,0-1.78-1.7,5.25,5.25,0,0,0-2.42-.56,5.19,5.19,0,0,0-2.42.56,4.47,4.47,0,0,0-1.81,1.7,5.67,5.67,0,0,0-.74,2.8h9.75A5.16,5.16,0,0,0,300.84,254.09Z" fill="#fff"/><path d="M310.3,252h-3.22v11.52h-1V252h-1.87v-.91H306v-.87a3.84,3.84,0,0,1,1-2.9,4.57,4.57,0,0,1,3.23-.95v.92a3.53,3.53,0,0,0-2.49.68,3.09,3.09,0,0,0-.69,2.25v.87h3.22Z" fill="#fff"/><path d="M315.59,251.59a5.51,5.51,0,0,1,3-.73v1.08h-.34a4.53,4.53,0,0,0-3.05,1,4.27,4.27,0,0,0-1.21,3.4v7.17h-1V251.12h1v2.56A3.71,3.71,0,0,1,315.59,251.59Z" fill="#fff"/><path d="M332.1,257.73H321.36a5.76,5.76,0,0,0,.73,2.82,4.46,4.46,0,0,0,1.81,1.72,5.35,5.35,0,0,0,2.45.57,5,5,0,0,0,3.07-.91,3.91,3.91,0,0,0,1.56-2.46h1.07a5,5,0,0,1-1.87,3.08,6,6,0,0,1-3.83,1.18,6.16,6.16,0,0,1-3.11-.78,5.44,5.44,0,0,1-2.15-2.23,7.82,7.82,0,0,1,0-6.79,5.31,5.31,0,0,1,2.14-2.21,6.31,6.31,0,0,1,3.13-.76,6.1,6.1,0,0,1,3.11.76,5.22,5.22,0,0,1,2,2,5.66,5.66,0,0,1,.69,2.74A11.87,11.87,0,0,1,332.1,257.73Zm-1.57-3.64a4.14,4.14,0,0,0-1.77-1.7,5.29,5.29,0,0,0-2.43-.56,5.22,5.22,0,0,0-2.42.56,4.38,4.38,0,0,0-1.8,1.7,5.57,5.57,0,0,0-.75,2.8h9.75A5.07,5.07,0,0,0,330.53,254.09Z" fill="#fff"/><path d="M336,262.82a3.4,3.4,0,0,1-1.47-2.61h1.05a2.56,2.56,0,0,0,1.11,1.92,4.61,4.61,0,0,0,2.71.71,3.35,3.35,0,0,0,2.26-.72,2.24,2.24,0,0,0,.83-1.78,1.71,1.71,0,0,0-.44-1.2,3,3,0,0,0-1.11-.72c-.45-.17-1.05-.35-1.81-.55a16.17,16.17,0,0,1-2.22-.72,3.63,3.63,0,0,1-1.44-1.07,2.83,2.83,0,0,1-.6-1.9,2.68,2.68,0,0,1,.53-1.61,3.59,3.59,0,0,1,1.46-1.18A5,5,0,0,1,339,251a4.84,4.84,0,0,1,3.15,1,3.52,3.52,0,0,1,1.29,2.69h-1a2.75,2.75,0,0,0-1-2,3.67,3.67,0,0,0-2.47-.77,3.48,3.48,0,0,0-2.2.68,2.07,2.07,0,0,0-.87,1.67,2,2,0,0,0,.49,1.41,3.19,3.19,0,0,0,1.22.83,17.17,17.17,0,0,0,1.91.6,16.11,16.11,0,0,1,2.09.68,3.51,3.51,0,0,1,1.34,1,2.45,2.45,0,0,1,.55,1.68,3,3,0,0,1-.53,1.74,3.45,3.45,0,0,1-1.46,1.22,5,5,0,0,1-2.11.43A5.83,5.83,0,0,1,336,262.82Z" fill="#fff"/><path d="M355.86,252.23a5.36,5.36,0,0,1,1.4,4v7.28h-1v-7.21a4.73,4.73,0,0,0-1.12-3.4,4,4,0,0,0-3-1.18,4.21,4.21,0,0,0-3.22,1.28,5.36,5.36,0,0,0-1.2,3.8v6.71h-1V246.61h1v7.14a4.1,4.1,0,0,1,1.76-2.14,5.38,5.38,0,0,1,2.84-.75A4.91,4.91,0,0,1,355.86,252.23Z" fill="#fff"/><path d="M202.73,179.89H194v3.85a4,4,0,0,1,1.56-1,6.66,6.66,0,0,1,5.66.55,5.68,5.68,0,0,1,2,2.46,8.22,8.22,0,0,1,.64,3.27,7.17,7.17,0,0,1-1.84,5.18,6.89,6.89,0,0,1-5.19,1.91,9.14,9.14,0,0,1-3.88-.77,5.84,5.84,0,0,1-2.54-2.14,6.17,6.17,0,0,1-1-3.15h4.66a2.48,2.48,0,0,0,.81,1.44,2.57,2.57,0,0,0,1.76.57,2.29,2.29,0,0,0,2-.84,3.56,3.56,0,0,0,.65-2.23,3,3,0,0,0-.67-2.09,2.94,2.94,0,0,0-3.52-.27,2.15,2.15,0,0,0-.81,1.21h-4.61V175.7h13Z" fill="#1e3163"/><path d="M208.38,178.07q1.86-2.76,6-2.76c2.76,0,4.75.92,6,2.76a16.44,16.44,0,0,1,0,15.19c-1.24,1.84-3.23,2.76-6,2.76s-4.75-.92-6-2.76a16.52,16.52,0,0,1,0-15.19Zm8.53,3.23a2.88,2.88,0,0,0-5.08,0,12,12,0,0,0-.61,4.34,18.23,18.23,0,0,0,.22,3.14,4,4,0,0,0,.91,2,2.56,2.56,0,0,0,2,.77,2.6,2.6,0,0,0,2-.77,4.06,4.06,0,0,0,.9-2,18.11,18.11,0,0,0,.23-3.14A12,12,0,0,0,216.91,181.3Z" fill="#1e3163"/><path d="M225.43,191.59q2.73-2.26,4.31-3.72a18.24,18.24,0,0,0,2.67-3,5.52,5.52,0,0,0,1.08-3.1,2.71,2.71,0,0,0-.53-1.79,2.2,2.2,0,0,0-3.25.16,3.67,3.67,0,0,0-.6,2.25H224.5a8,8,0,0,1,1-4,6,6,0,0,1,2.54-2.34,8,8,0,0,1,3.51-.76,6.8,6.8,0,0,1,5,1.7,6.07,6.07,0,0,1,1.69,4.44,8.67,8.67,0,0,1-2,5.54,29.94,29.94,0,0,1-5.19,5h7.53v3.88h-14v-3.55Z" fill="#1e3163"/><path d="M260.89,187.65a4.77,4.77,0,0,1,1.16,3.21,5.08,5.08,0,0,1-.71,2.69,4.81,4.81,0,0,1-2.12,1.87,7.72,7.72,0,0,1-3.42.69h-6.23v-19.6h6.12a6.39,6.39,0,0,1,4.42,1.35,4.94,4.94,0,0,1,.49,6.54A5,5,0,0,1,258,186,4.78,4.78,0,0,1,260.89,187.65Zm-10.06-2.23h4.91a5,5,0,0,0,3.4-1,3.65,3.65,0,0,0,1.18-2.89,3.57,3.57,0,0,0-1.17-2.82,5.23,5.23,0,0,0-3.55-1h-4.77Zm8.61,8.47a4.22,4.22,0,0,0,0-6.23,5.71,5.71,0,0,0-3.78-1.16h-4.8V195h4.89A5.64,5.64,0,0,0,259.44,193.89Z" fill="#1e3163"/><path d="M265.89,184.41a6.66,6.66,0,0,1,2.6-2.71,7.5,7.5,0,0,1,3.78-.95,6.89,6.89,0,0,1,4.08,1.18,6.24,6.24,0,0,1,2.34,3v-4H280v15.16h-1.26v-4a6.27,6.27,0,0,1-2.36,3,6.81,6.81,0,0,1-4.06,1.19,7.4,7.4,0,0,1-3.78-1,6.68,6.68,0,0,1-2.6-2.74,9.55,9.55,0,0,1,0-8.22Zm12,.6a5.9,5.9,0,0,0-2.25-2.34,6.23,6.23,0,0,0-3.18-.83,6.43,6.43,0,0,0-3.24.8,5.51,5.51,0,0,0-2.18,2.3,8.58,8.58,0,0,0,0,7.15,5.49,5.49,0,0,0,2.19,2.31,6.38,6.38,0,0,0,3.23.81,6.26,6.26,0,0,0,3.19-.82,5.77,5.77,0,0,0,2.25-2.34,7.45,7.45,0,0,0,.81-3.54A7.24,7.24,0,0,0,277.87,185Z" fill="#1e3163"/><path d="M284.68,184.41a6.66,6.66,0,0,1,2.6-2.71,7.47,7.47,0,0,1,3.78-.95,7,7,0,0,1,4,1.16,6.28,6.28,0,0,1,2.4,3v-9.46h1.26v20.66h-1.26v-4a6.24,6.24,0,0,1-2.35,3,6.78,6.78,0,0,1-4.07,1.19,7.38,7.38,0,0,1-3.78-1,6.68,6.68,0,0,1-2.6-2.74,9.46,9.46,0,0,1,0-8.22Zm12,.6a5.9,5.9,0,0,0-2.25-2.34,6.23,6.23,0,0,0-3.18-.83,6.43,6.43,0,0,0-3.24.8,5.51,5.51,0,0,0-2.18,2.3,8.58,8.58,0,0,0,0,7.15A5.49,5.49,0,0,0,288,194.4a6.38,6.38,0,0,0,3.23.81,6.29,6.29,0,0,0,3.19-.82,5.77,5.77,0,0,0,2.25-2.34,7.45,7.45,0,0,0,.81-3.54A7.35,7.35,0,0,0,296.66,185Z" fill="#1e3163"/><path d="M327.29,182.29a7.24,7.24,0,0,0-2.77-3.52,8.65,8.65,0,0,0-8.78-.22,7.7,7.7,0,0,0-3,3.1,10.63,10.63,0,0,0,0,9.38,7.58,7.58,0,0,0,3,3.08,8.63,8.63,0,0,0,8.23.07,7.51,7.51,0,0,0,2.9-2.86,9.16,9.16,0,0,0,1.2-4.34h-8.73v-1.06h10v.84a10.52,10.52,0,0,1-1.31,4.91,9,9,0,0,1-3.35,3.41A10,10,0,0,1,315,195a8.94,8.94,0,0,1-3.41-3.54,11.46,11.46,0,0,1,0-10.33,9,9,0,0,1,3.41-3.55,9.57,9.57,0,0,1,4.88-1.27,9.41,9.41,0,0,1,5.46,1.58,9,9,0,0,1,3.36,4.37Z" fill="#1e3163"/><path d="M333.31,184.41a6.66,6.66,0,0,1,2.6-2.71,7.47,7.47,0,0,1,3.78-.95,6.84,6.84,0,0,1,4.07,1.18,6.21,6.21,0,0,1,2.35,3v-4h1.26v15.16h-1.26v-4a6.27,6.27,0,0,1-2.36,3,6.83,6.83,0,0,1-4.06,1.19,7.38,7.38,0,0,1-3.78-1,6.68,6.68,0,0,1-2.6-2.74,9.46,9.46,0,0,1,0-8.22Zm12,.6a5.9,5.9,0,0,0-2.25-2.34,6.23,6.23,0,0,0-3.18-.83,6.43,6.43,0,0,0-3.24.8,5.51,5.51,0,0,0-2.18,2.3,8.58,8.58,0,0,0,0,7.15,5.49,5.49,0,0,0,2.19,2.31,6.38,6.38,0,0,0,3.23.81,6.29,6.29,0,0,0,3.19-.82,5.77,5.77,0,0,0,2.25-2.34,7.45,7.45,0,0,0,.81-3.54A7.35,7.35,0,0,0,345.29,185Z" fill="#1e3163"/><path d="M353.81,182v10a3.28,3.28,0,0,0,.62,2.3,3,3,0,0,0,2.18.63h1.7v1.12h-1.9a4,4,0,0,1-2.92-.94,4.3,4.3,0,0,1-.93-3.11V182h-2.29V181h2.29V177.1h1.25V181h4.5V182Z" fill="#1e3163"/><path d="M375.23,189h-13.1a6.94,6.94,0,0,0,.9,3.43,5.32,5.32,0,0,0,2.2,2.09,6.42,6.42,0,0,0,3,.7,6.14,6.14,0,0,0,3.74-1.1,4.82,4.82,0,0,0,1.9-3h1.31a6.05,6.05,0,0,1-2.29,3.75,7.34,7.34,0,0,1-4.66,1.44,7.6,7.6,0,0,1-3.8-1,6.61,6.61,0,0,1-2.62-2.72,8.56,8.56,0,0,1-.95-4.15,8.74,8.74,0,0,1,.93-4.13,6.57,6.57,0,0,1,2.61-2.69,7.76,7.76,0,0,1,3.83-.94,7.41,7.41,0,0,1,3.78.94,6.25,6.25,0,0,1,2.44,2.48,6.93,6.93,0,0,1,.84,3.34C375.28,188.18,375.26,188.68,375.23,189Zm-1.92-4.44a5,5,0,0,0-2.16-2.08,6.48,6.48,0,0,0-3-.69,6.37,6.37,0,0,0-2.94.69,5.38,5.38,0,0,0-2.21,2.08,6.78,6.78,0,0,0-.91,3.4H374A6.18,6.18,0,0,0,373.31,184.58Z" fill="#1e3163"/><path d="M398.9,181l-4.78,15.16h-1.2l-4.83-13.43-4.85,13.43H382L377.26,181h1.32l4.07,13.73L387.51,181h1.2l4.83,13.68L397.61,181Z" fill="#1e3163"/><path d="M401.82,184.41a6.64,6.64,0,0,1,2.59-2.71,7.52,7.52,0,0,1,3.78-.95,6.89,6.89,0,0,1,4.08,1.18,6.21,6.21,0,0,1,2.35,3v-4h1.25v15.16h-1.25v-4a6.32,6.32,0,0,1-2.36,3,6.84,6.84,0,0,1-4.07,1.19,7.43,7.43,0,0,1-3.78-1,6.65,6.65,0,0,1-2.59-2.74,9.46,9.46,0,0,1,0-8.22Zm12,.6a5.9,5.9,0,0,0-2.25-2.34,6.21,6.21,0,0,0-3.18-.83,6.43,6.43,0,0,0-3.24.8,5.48,5.48,0,0,0-2.17,2.3,8.48,8.48,0,0,0,0,7.15,5.49,5.49,0,0,0,2.19,2.31,6.73,6.73,0,0,0,6.42,0,5.77,5.77,0,0,0,2.25-2.34,7.45,7.45,0,0,0,.81-3.54A7.24,7.24,0,0,0,413.79,185Z" fill="#1e3163"/><path d="M432.29,181l-8.83,22.28h-1.28l2.82-7.12L418.63,181H420l5.7,13.76L431,181Z" fill="#1e3163"/><line x1="96.44" y1="584.22" x2="768.44" y2="584.22" fill="none" stroke="#747bff" stroke-miterlimit="10"/></svg>